<?xml version="1.0" encoding="UTF-8"?>
<svg id="Layer_1" data-name="Layer 1" xmlns="http://www.w3.org/2000/svg" viewBox="0 0 180.68 154.83">
  <g>
    <path d="m30.15,34.06c-.15.02-.6.07-1.01.12-2.25.26-4.86,1.09-6.97,2.22-4.59,2.46-8.05,6.71-9.58,11.75-.57,1.87-.82,3.63-.82,5.64s.21,3.67.74,5.51c3.16,10.97,14.8,17.03,25.54,13.28,6.38-2.23,11.2-7.6,12.75-14.19.4-1.72.47-2.34.46-4.61,0-1.95-.02-2.23-.21-3.26-1.57-8.72-8.38-15.23-17.11-16.36-.68-.09-3.32-.16-3.8-.11Zm-4.93,3.2c.92.46,1.53.9,1.64,1.2.09.26.02.34-1.03.95-.9.53-1.24.82-1.42,1.23-.19.4-.18.69,0,1.1.2.46.67.74,1.89,1.12,1.04.33,1.44.58,1.44.9,0,.29-.26,1-.53,1.47-.22.4-.39.56-.9.91-.35.23-.85.62-1.11.86-.6.54-1.51,1.74-1.92,2.54-.29.57-.33.6-.74.77-.57.22-1.54.25-1.77.04-.17-.16-.28-.69-.36-1.78-.09-1.1-.39-1.74-.95-1.97-.67-.29-1.17-.05-2.31,1.11-.48.48-.91.88-.95.88-.11,0-.37-.31-.53-.61-.21-.42-.35-.85-.5-1.57l-.14-.67.43-.77c1.59-2.88,3.87-5.24,6.64-6.91.67-.41,2.13-1.16,2.28-1.19.02,0,.38.17.81.38Zm7.65,8.81c3.05.53,5.52,2.8,6.33,5.82.18.68.2.92.2,1.98s-.02,1.29-.2,1.98c-.57,2.12-2.03,3.98-3.92,4.99-4.53,2.41-10.06-.02-11.39-4.99-.29-1.13-.29-2.82,0-3.95,1.06-3.98,4.98-6.52,8.98-5.82Zm9.29,11.37c.04.1.1.68.15,1.3.12,1.67.4,2.16,1.3,2.23.59.05.95-.16,1.93-1.1.46-.45.93-.85,1.05-.9.2-.09.26-.08.54.11.3.2.8.82,1.19,1.48l.19.32-.29.65c-1.64,3.68-4.81,6.96-8.47,8.78l-.91.46-.4-.14c-1-.33-1.61-.78-1.61-1.19,0-.29.03-.34.66-1.36.83-1.33.91-1.92.37-2.53-.43-.47-.98-.56-2.16-.35-1.17.21-1.32.22-1.47.08-.16-.17-.12-.63.15-1.4.38-1.12.48-1.25,1.18-1.58,1.4-.67,2.74-1.81,3.64-3.09.52-.74,1.05-1.2,1.93-1.64.7-.36.95-.39,1.05-.14Z"/>
    <path d="m30.3,50.01c-1.73.59-2.79,2.05-2.79,3.85s1.16,3.39,2.94,3.91c.55.16,1.64.16,2.19,0,1.77-.52,2.94-2.08,2.94-3.92s-1.18-3.37-2.94-3.89c-.64-.19-1.71-.16-2.33.05Zm2.35,1.48c.5.24,1.09.85,1.3,1.32.55,1.26-.04,2.81-1.31,3.43-.37.18-.54.21-1.1.22-.57,0-.72-.03-1.1-.22-1.6-.78-2.02-2.84-.83-4.12.6-.66,1.19-.91,2.06-.86.4.02.67.08.98.23Z"/>
  </g>
  <g>
    <path d="m133.9,24.51c-.15.02-.6.07-1.01.12-2.25.26-4.86,1.09-6.97,2.22-4.59,2.46-8.05,6.71-9.58,11.75-.57,1.87-.82,3.63-.82,5.64s.21,3.67.74,5.51c3.16,10.97,14.8,17.03,25.54,13.28,6.38-2.23,11.2-7.6,12.75-14.19.4-1.72.47-2.34.46-4.61,0-1.95-.02-2.23-.21-3.26-1.57-8.72-8.38-15.23-17.11-16.36-.68-.09-3.32-.16-3.8-.11Zm-4.93,3.2c.92.46,1.53.9,1.64,1.2.09.26.02.34-1.03.95-.9.53-1.24.82-1.42,1.23-.19.4-.18.69,0,1.1.2.46.67.74,1.89,1.12,1.04.33,1.44.58,1.44.9,0,.29-.26,1-.53,1.47-.22.4-.39.56-.9.91-.35.23-.85.62-1.11.86-.6.54-1.51,1.74-1.92,2.54-.29.57-.33.6-.74.77-.57.22-1.54.25-1.77.04-.17-.16-.28-.69-.36-1.78-.09-1.1-.39-1.74-.95-1.97-.67-.29-1.17-.05-2.31,1.11-.48.48-.91.88-.95.88-.11,0-.37-.31-.53-.61-.21-.42-.35-.85-.5-1.57l-.14-.67.43-.77c1.59-2.88,3.87-5.24,6.64-6.91.67-.41,2.13-1.16,2.28-1.19.02,0,.38.17.81.38Zm7.65,8.81c3.05.53,5.52,2.8,6.33,5.82.18.68.2.92.2,1.98s-.02,1.29-.2,1.98c-.57,2.12-2.03,3.98-3.92,4.99-4.53,2.41-10.06-.02-11.39-4.99-.29-1.13-.29-2.82,0-3.95,1.06-3.98,4.98-6.52,8.98-5.82Zm9.29,11.37c.04.1.1.68.15,1.3.12,1.67.4,2.16,1.3,2.23.59.05.95-.16,1.93-1.1.46-.45.93-.85,1.05-.9.2-.09.26-.08.54.11.3.2.8.82,1.19,1.48l.19.32-.29.65c-1.64,3.68-4.81,6.96-8.47,8.78l-.91.46-.4-.14c-1-.33-1.61-.78-1.61-1.19,0-.29.03-.34.66-1.36.83-1.33.91-1.92.37-2.53-.43-.47-.98-.56-2.16-.35-1.17.21-1.32.22-1.47.08-.16-.17-.12-.63.15-1.4.38-1.12.48-1.25,1.18-1.58,1.4-.67,2.74-1.81,3.64-3.09.52-.74,1.05-1.2,1.93-1.64.7-.36.95-.39,1.05-.14Z"/>
    <path d="m134.05,40.45c-1.73.59-2.79,2.05-2.79,3.85s1.16,3.39,2.94,3.91c.55.16,1.64.16,2.19,0,1.77-.52,2.94-2.08,2.94-3.92s-1.18-3.37-2.94-3.89c-.64-.19-1.71-.16-2.33.05Zm2.35,1.48c.5.24,1.09.85,1.3,1.32.55,1.26-.04,2.81-1.31,3.43-.37.18-.54.21-1.1.22-.57,0-.72-.03-1.1-.22-1.6-.78-2.02-2.84-.83-4.12.6-.66,1.19-.91,2.06-.86.4.02.67.08.98.23Z"/>
  </g>
  <g>
    <path d="m84.04,27.12c-.15.02-.6.07-1.01.12-2.25.26-4.86,1.09-6.97,2.22-4.59,2.46-8.05,6.71-9.58,11.75-.57,1.87-.82,3.63-.82,5.64s.21,3.67.74,5.51c3.16,10.97,14.8,17.03,25.54,13.28,6.38-2.23,11.2-7.6,12.75-14.19.4-1.72.47-2.34.46-4.61,0-1.95-.02-2.23-.21-3.26-1.57-8.72-8.38-15.23-17.11-16.36-.68-.09-3.32-.16-3.8-.11Zm-4.93,3.2c.92.46,1.53.9,1.64,1.2.09.26.02.34-1.03.95-.9.53-1.24.82-1.42,1.23-.19.4-.18.69,0,1.1.2.46.67.74,1.89,1.12,1.04.33,1.44.58,1.44.9,0,.29-.26,1-.53,1.47-.22.4-.39.56-.9.91-.35.23-.85.62-1.11.86-.6.54-1.51,1.74-1.92,2.54-.29.57-.33.6-.74.77-.57.22-1.54.25-1.77.04-.17-.16-.28-.69-.36-1.78-.09-1.1-.39-1.74-.95-1.97-.67-.29-1.17-.05-2.31,1.11-.48.48-.91.88-.95.88-.11,0-.37-.31-.53-.61-.21-.42-.35-.85-.5-1.57l-.14-.67.43-.77c1.59-2.88,3.87-5.24,6.64-6.91.67-.41,2.13-1.16,2.28-1.19.02,0,.38.17.81.38Zm7.65,8.81c3.05.53,5.52,2.8,6.33,5.82.18.68.2.92.2,1.98s-.02,1.29-.2,1.98c-.57,2.12-2.03,3.98-3.92,4.99-4.53,2.41-10.06-.02-11.39-4.99-.29-1.13-.29-2.82,0-3.95,1.06-3.98,4.98-6.52,8.98-5.82Zm9.29,11.37c.04.1.1.68.15,1.3.12,1.67.4,2.16,1.3,2.23.59.05.95-.16,1.93-1.1.46-.45.93-.85,1.05-.9.2-.09.26-.08.54.11.3.2.8.82,1.19,1.48l.19.32-.29.65c-1.64,3.68-4.81,6.96-8.47,8.78l-.91.46-.4-.14c-1-.33-1.61-.78-1.61-1.19,0-.29.03-.34.66-1.36.83-1.33.91-1.92.37-2.53-.43-.47-.98-.56-2.16-.35-1.17.21-1.32.22-1.47.08-.16-.17-.12-.63.15-1.4.38-1.12.48-1.25,1.18-1.58,1.4-.67,2.74-1.81,3.64-3.09.52-.74,1.05-1.2,1.93-1.64.7-.36.95-.39,1.05-.14Z"/>
    <path d="m84.19,43.07c-1.73.59-2.79,2.05-2.79,3.85s1.16,3.39,2.94,3.91c.55.16,1.64.16,2.19,0,1.77-.52,2.94-2.08,2.94-3.92s-1.18-3.37-2.94-3.89c-.64-.19-1.71-.16-2.33.05Zm2.35,1.48c.5.24,1.09.85,1.3,1.32.55,1.26-.04,2.81-1.31,3.43-.37.18-.54.21-1.1.22-.57,0-.72-.03-1.1-.22-1.6-.78-2.02-2.84-.83-4.12.6-.66,1.19-.91,2.06-.86.4.02.67.08.98.23Z"/>
  </g>
  <g>
    <path d="m30.15,88.83c-.15.02-.6.07-1.01.12-2.25.26-4.86,1.09-6.97,2.22-4.59,2.46-8.05,6.71-9.58,11.75-.57,1.87-.82,3.63-.82,5.64s.21,3.67.74,5.51c3.16,10.97,14.8,17.03,25.54,13.28,6.38-2.23,11.2-7.6,12.75-14.19.4-1.72.47-2.34.46-4.61,0-1.95-.02-2.23-.21-3.26-1.57-8.72-8.38-15.23-17.11-16.36-.68-.09-3.32-.16-3.8-.11Zm-4.93,3.2c.92.46,1.53.9,1.64,1.2.09.26.02.34-1.03.95-.9.53-1.24.82-1.42,1.23-.19.4-.18.69,0,1.1.2.46.67.74,1.89,1.12,1.04.33,1.44.58,1.44.9,0,.29-.26,1-.53,1.47-.22.4-.39.56-.9.91-.35.23-.85.62-1.11.86-.6.54-1.51,1.74-1.92,2.54-.29.57-.33.6-.74.77-.57.22-1.54.25-1.77.04-.17-.16-.28-.69-.36-1.78-.09-1.1-.39-1.74-.95-1.97-.67-.29-1.17-.05-2.31,1.11-.48.48-.91.88-.95.88-.11,0-.37-.31-.53-.61-.21-.42-.35-.85-.5-1.57l-.14-.67.43-.77c1.59-2.88,3.87-5.24,6.64-6.91.67-.41,2.13-1.16,2.28-1.19.02,0,.38.17.81.38Zm7.65,8.81c3.05.53,5.52,2.8,6.33,5.82.18.68.2.92.2,1.98s-.02,1.29-.2,1.98c-.57,2.12-2.03,3.98-3.92,4.99-4.53,2.41-10.06-.02-11.39-4.99-.29-1.13-.29-2.82,0-3.95,1.06-3.98,4.98-6.52,8.98-5.82Zm9.29,11.37c.04.1.1.68.15,1.3.12,1.67.4,2.16,1.3,2.23.59.05.95-.16,1.93-1.1.46-.45.93-.85,1.05-.9.2-.09.26-.08.54.11.3.2.8.82,1.19,1.48l.19.32-.29.65c-1.64,3.68-4.81,6.96-8.47,8.78l-.91.46-.4-.14c-1-.33-1.61-.78-1.61-1.19,0-.29.03-.34.66-1.36.83-1.33.91-1.92.37-2.53-.43-.47-.98-.56-2.16-.35-1.17.21-1.32.22-1.47.08-.16-.17-.12-.63.15-1.4.38-1.12.48-1.25,1.18-1.58,1.4-.67,2.74-1.81,3.64-3.09.52-.74,1.05-1.2,1.93-1.64.7-.36.95-.39,1.05-.14Z"/>
    <path d="m30.3,104.78c-1.73.59-2.79,2.05-2.79,3.85s1.16,3.39,2.94,3.91c.55.16,1.64.16,2.19,0,1.77-.52,2.94-2.08,2.94-3.92s-1.18-3.37-2.94-3.89c-.64-.19-1.71-.16-2.33.05Zm2.35,1.48c.5.24,1.09.85,1.3,1.32.55,1.26-.04,2.81-1.31,3.43-.37.18-.54.21-1.1.22-.57,0-.72-.03-1.1-.22-1.6-.78-2.02-2.84-.83-4.12.6-.66,1.19-.91,2.06-.86.4.02.67.08.98.23Z"/>
  </g>
  <g>
    <path d="m154.58,87.59c-.15.02-.6.07-1.01.12-2.25.26-4.86,1.09-6.97,2.22-4.59,2.46-8.05,6.71-9.58,11.75-.57,1.87-.82,3.63-.82,5.64s.21,3.67.74,5.51c3.16,10.97,14.8,17.03,25.54,13.28,6.38-2.23,11.2-7.6,12.75-14.19.4-1.72.47-2.34.46-4.61,0-1.95-.02-2.23-.21-3.26-1.57-8.72-8.38-15.23-17.11-16.36-.68-.09-3.32-.16-3.8-.11Zm-4.93,3.2c.92.46,1.53.9,1.64,1.2.09.26.02.34-1.03.95-.9.53-1.24.82-1.42,1.23-.19.4-.18.69,0,1.1.2.46.67.74,1.89,1.12,1.04.33,1.44.58,1.44.9,0,.29-.26,1-.53,1.47-.22.4-.39.56-.9.91-.35.23-.85.62-1.11.86-.6.54-1.51,1.74-1.92,2.54-.29.57-.33.6-.74.77-.57.22-1.54.25-1.77.04-.17-.16-.28-.69-.36-1.78-.09-1.1-.39-1.74-.95-1.97-.67-.29-1.17-.05-2.31,1.11-.48.48-.91.88-.95.88-.11,0-.37-.31-.53-.61-.21-.42-.35-.85-.5-1.57l-.14-.67.43-.77c1.59-2.88,3.87-5.24,6.64-6.91.67-.41,2.13-1.16,2.28-1.19.02,0,.38.17.81.38Zm7.65,8.81c3.05.53,5.52,2.8,6.33,5.82.18.68.2.92.2,1.98s-.02,1.29-.2,1.98c-.57,2.12-2.03,3.98-3.92,4.99-4.53,2.41-10.06-.02-11.39-4.99-.29-1.13-.29-2.82,0-3.95,1.06-3.98,4.98-6.52,8.98-5.82Zm9.29,11.37c.04.1.1.68.15,1.3.12,1.67.4,2.16,1.3,2.23.59.05.95-.16,1.93-1.1.46-.45.93-.85,1.05-.9.2-.09.26-.08.54.11.3.2.8.82,1.19,1.48l.19.32-.29.65c-1.64,3.68-4.81,6.96-8.47,8.78l-.91.46-.4-.14c-1-.33-1.61-.78-1.61-1.19,0-.29.03-.34.66-1.36.83-1.33.91-1.92.37-2.53-.43-.47-.98-.56-2.16-.35-1.17.21-1.32.22-1.47.08-.16-.17-.12-.63.15-1.4.38-1.12.48-1.25,1.18-1.58,1.4-.67,2.74-1.81,3.64-3.09.52-.74,1.05-1.2,1.93-1.64.7-.36.95-.39,1.05-.14Z"/>
    <path d="m154.73,103.54c-1.73.59-2.79,2.05-2.79,3.85s1.16,3.39,2.94,3.91c.55.16,1.64.16,2.19,0,1.77-.52,2.94-2.08,2.94-3.92s-1.18-3.37-2.94-3.89c-.64-.19-1.71-.16-2.33.05Zm2.35,1.48c.5.24,1.09.85,1.3,1.32.55,1.26-.04,2.81-1.31,3.43-.37.18-.54.21-1.1.22-.57,0-.72-.03-1.1-.22-1.6-.78-2.02-2.84-.83-4.12.6-.66,1.19-.91,2.06-.86.4.02.67.08.98.23Z"/>
  </g>
  <g>
    <path d="m92.73,88.83c-.15.02-.6.07-1.01.12-2.25.26-4.86,1.09-6.97,2.22-4.59,2.46-8.05,6.71-9.58,11.75-.57,1.87-.82,3.63-.82,5.64s.21,3.67.74,5.51c3.16,10.97,14.8,17.03,25.54,13.28,6.38-2.23,11.2-7.6,12.75-14.19.4-1.72.47-2.34.46-4.61,0-1.95-.02-2.23-.21-3.26-1.57-8.72-8.38-15.23-17.11-16.36-.68-.09-3.32-.16-3.8-.11Zm-4.93,3.2c.92.46,1.53.9,1.64,1.2.09.26.02.34-1.03.95-.9.53-1.24.82-1.42,1.23-.19.4-.18.69,0,1.1.2.46.67.74,1.89,1.12,1.04.33,1.44.58,1.44.9,0,.29-.26,1-.53,1.47-.22.4-.39.56-.9.91-.35.23-.85.62-1.11.86-.6.54-1.51,1.74-1.92,2.54-.29.57-.33.6-.74.77-.57.22-1.54.25-1.77.04-.17-.16-.28-.69-.36-1.78-.09-1.1-.39-1.74-.95-1.97-.67-.29-1.17-.05-2.31,1.11-.48.48-.91.88-.95.88-.11,0-.37-.31-.53-.61-.21-.42-.35-.85-.5-1.57l-.14-.67.43-.77c1.59-2.88,3.87-5.24,6.64-6.91.67-.41,2.13-1.16,2.28-1.19.02,0,.38.17.81.38Zm7.65,8.81c3.05.53,5.52,2.8,6.33,5.82.18.68.2.92.2,1.98s-.02,1.29-.2,1.98c-.57,2.12-2.03,3.98-3.92,4.99-4.53,2.41-10.06-.02-11.39-4.99-.29-1.13-.29-2.82,0-3.95,1.06-3.98,4.98-6.52,8.98-5.82Zm9.29,11.37c.04.1.1.68.15,1.3.12,1.67.4,2.16,1.3,2.23.59.05.95-.16,1.93-1.1.46-.45.93-.85,1.05-.9.2-.09.26-.08.54.11.3.2.8.82,1.19,1.48l.19.32-.29.65c-1.64,3.68-4.81,6.96-8.47,8.78l-.91.46-.4-.14c-1-.33-1.61-.78-1.61-1.19,0-.29.03-.34.66-1.36.83-1.33.91-1.92.37-2.53-.43-.47-.98-.56-2.16-.35-1.17.21-1.32.22-1.47.08-.16-.17-.12-.63.15-1.4.38-1.12.48-1.25,1.18-1.58,1.4-.67,2.74-1.81,3.64-3.09.52-.74,1.05-1.2,1.93-1.64.7-.36.95-.39,1.05-.14Z"/>
    <path d="m92.88,104.78c-1.73.59-2.79,2.05-2.79,3.85s1.16,3.39,2.94,3.91c.55.16,1.64.16,2.19,0,1.77-.52,2.94-2.08,2.94-3.92s-1.18-3.37-2.94-3.89c-.64-.19-1.71-.16-2.33.05Zm2.35,1.48c.5.24,1.09.85,1.3,1.32.55,1.26-.04,2.81-1.31,3.43-.37.18-.54.21-1.1.22-.57,0-.72-.03-1.1-.22-1.6-.78-2.02-2.84-.83-4.12.6-.66,1.19-.91,2.06-.86.4.02.67.08.98.23Z"/>
  </g>
  <g>
    <path d="m74.77,61.27c-.15.02-.6.07-1.01.12-2.25.26-4.86,1.09-6.97,2.22-4.59,2.46-8.05,6.71-9.58,11.75-.57,1.87-.82,3.63-.82,5.64s.21,3.67.74,5.51c3.16,10.97,14.8,17.03,25.54,13.28,6.38-2.23,11.2-7.6,12.75-14.19.4-1.72.47-2.34.46-4.61,0-1.95-.02-2.23-.21-3.26-1.57-8.72-8.38-15.23-17.11-16.36-.68-.09-3.32-.16-3.8-.11Zm-4.93,3.2c.92.46,1.53.9,1.64,1.2.09.26.02.34-1.03.95-.9.53-1.24.82-1.42,1.23-.19.4-.18.69,0,1.1.2.46.67.74,1.89,1.12,1.04.33,1.44.58,1.44.9,0,.29-.26,1-.53,1.47-.22.4-.39.56-.9.91-.35.23-.85.62-1.11.86-.6.54-1.51,1.74-1.92,2.54-.29.57-.33.6-.74.77-.57.22-1.54.25-1.77.04-.17-.16-.28-.69-.36-1.78-.09-1.1-.39-1.74-.95-1.97-.67-.29-1.17-.05-2.31,1.11-.48.48-.91.88-.95.88-.11,0-.37-.31-.53-.61-.21-.42-.35-.85-.5-1.57l-.14-.67.43-.77c1.59-2.88,3.87-5.24,6.64-6.91.67-.41,2.13-1.16,2.28-1.19.02,0,.38.17.81.38Zm7.65,8.81c3.05.53,5.52,2.8,6.33,5.82.18.68.2.92.2,1.98s-.02,1.29-.2,1.98c-.57,2.12-2.03,3.98-3.92,4.99-4.53,2.41-10.06-.02-11.39-4.99-.29-1.13-.29-2.82,0-3.95,1.06-3.98,4.98-6.52,8.98-5.82Zm9.29,11.37c.04.1.1.68.15,1.3.12,1.67.4,2.16,1.3,2.23.59.05.95-.16,1.93-1.1.46-.45.93-.85,1.05-.9.2-.09.26-.08.54.11.3.2.8.82,1.19,1.48l.19.32-.29.65c-1.64,3.68-4.81,6.96-8.47,8.78l-.91.46-.4-.14c-1-.33-1.61-.78-1.61-1.19,0-.29.03-.34.66-1.36.83-1.33.91-1.92.37-2.53-.43-.47-.98-.56-2.16-.35-1.17.21-1.32.22-1.47.08-.16-.17-.12-.63.15-1.4.38-1.12.48-1.25,1.18-1.58,1.4-.67,2.74-1.81,3.64-3.09.52-.74,1.05-1.2,1.93-1.64.7-.36.95-.39,1.05-.14Z"/>
    <path d="m74.92,77.22c-1.73.59-2.79,2.05-2.79,3.85s1.16,3.39,2.94,3.91c.55.16,1.64.16,2.19,0,1.77-.52,2.94-2.08,2.94-3.92s-1.18-3.37-2.94-3.89c-.64-.19-1.71-.16-2.33.05Zm2.35,1.48c.5.24,1.09.85,1.3,1.32.55,1.26-.04,2.81-1.31,3.43-.37.18-.54.21-1.1.22-.57,0-.72-.03-1.1-.22-1.6-.78-2.02-2.84-.83-4.12.6-.66,1.19-.91,2.06-.86.4.02.67.08.98.23Z"/>
  </g>
  <g>
    <path d="m124.71,56.3c-.15.02-.6.07-1.01.12-2.25.26-4.86,1.09-6.97,2.22-4.59,2.46-8.05,6.71-9.58,11.75-.57,1.87-.82,3.63-.82,5.64s.21,3.67.74,5.51c3.16,10.97,14.8,17.03,25.54,13.28,6.38-2.23,11.2-7.6,12.75-14.19.4-1.72.47-2.34.46-4.61,0-1.95-.02-2.23-.21-3.26-1.57-8.72-8.38-15.23-17.11-16.36-.68-.09-3.32-.16-3.8-.11Zm-4.93,3.2c.92.46,1.53.9,1.64,1.2.09.26.02.34-1.03.95-.9.53-1.24.82-1.42,1.23-.19.4-.18.69,0,1.1.2.46.67.74,1.89,1.12,1.04.33,1.44.58,1.44.9,0,.29-.26,1-.53,1.47-.22.4-.39.56-.9.91-.35.23-.85.62-1.11.86-.6.54-1.51,1.74-1.92,2.54-.29.57-.33.6-.74.77-.57.22-1.54.25-1.77.04-.17-.16-.28-.69-.36-1.78-.09-1.1-.39-1.74-.95-1.97-.67-.29-1.17-.05-2.31,1.11-.48.48-.91.88-.95.88-.11,0-.37-.31-.53-.61-.21-.42-.35-.85-.5-1.57l-.14-.67.43-.77c1.59-2.88,3.87-5.24,6.64-6.91.67-.41,2.13-1.16,2.28-1.19.02,0,.38.17.81.38Zm7.65,8.81c3.05.53,5.52,2.8,6.33,5.82.18.68.2.92.2,1.98s-.02,1.29-.2,1.98c-.57,2.12-2.03,3.98-3.92,4.99-4.53,2.41-10.06-.02-11.39-4.99-.29-1.13-.29-2.82,0-3.95,1.06-3.98,4.98-6.52,8.98-5.82Zm9.29,11.37c.04.1.1.68.15,1.3.12,1.67.4,2.16,1.3,2.23.59.05.95-.16,1.93-1.1.46-.45.93-.85,1.05-.9.2-.09.26-.08.54.11.3.2.8.82,1.19,1.48l.19.32-.29.65c-1.64,3.68-4.81,6.96-8.47,8.78l-.91.46-.4-.14c-1-.33-1.61-.78-1.61-1.19,0-.29.03-.34.66-1.36.83-1.33.91-1.92.37-2.53-.43-.47-.98-.56-2.16-.35-1.17.21-1.32.22-1.47.08-.16-.17-.12-.63.15-1.4.38-1.12.48-1.25,1.18-1.58,1.4-.67,2.74-1.81,3.64-3.09.52-.74,1.05-1.2,1.93-1.64.7-.36.95-.39,1.05-.14Z"/>
    <path d="m124.86,72.24c-1.73.59-2.79,2.05-2.79,3.85s1.16,3.39,2.94,3.91c.55.16,1.64.16,2.19,0,1.77-.52,2.94-2.08,2.94-3.92s-1.18-3.37-2.94-3.89c-.64-.19-1.71-.16-2.33.05Zm2.35,1.48c.5.24,1.09.85,1.3,1.32.55,1.26-.04,2.81-1.31,3.43-.37.18-.54.21-1.1.22-.57,0-.72-.03-1.1-.22-1.6-.78-2.02-2.84-.83-4.12.6-.66,1.19-.91,2.06-.86.4.02.67.08.98.23Z"/>
  </g>
  <g>
    <path d="m108.24,23.08c-.15.02-.6.07-1.01.12-2.25.26-4.86,1.09-6.97,2.22-4.59,2.46-8.05,6.71-9.58,11.75-.57,1.87-.82,3.63-.82,5.64s.21,3.67.74,5.51c3.16,10.97,14.8,17.03,25.54,13.28,6.38-2.23,11.2-7.6,12.75-14.19.4-1.72.47-2.34.46-4.61,0-1.95-.02-2.23-.21-3.26-1.57-8.72-8.38-15.23-17.11-16.36-.68-.09-3.32-.16-3.8-.11Zm-4.93,3.2c.92.46,1.53.9,1.64,1.2.09.26.02.34-1.03.95-.9.53-1.24.82-1.42,1.23-.19.4-.18.69,0,1.1.2.46.67.74,1.89,1.12,1.04.33,1.44.58,1.44.9,0,.29-.26,1-.53,1.47-.22.4-.39.56-.9.91-.35.23-.85.62-1.11.86-.6.54-1.51,1.74-1.92,2.54-.29.57-.33.6-.74.77-.57.22-1.54.25-1.77.04-.17-.16-.28-.69-.36-1.78-.09-1.1-.39-1.74-.95-1.97-.67-.29-1.17-.05-2.31,1.11-.48.48-.91.88-.95.88-.11,0-.37-.31-.53-.61-.21-.42-.35-.85-.5-1.57l-.14-.67.43-.77c1.59-2.88,3.87-5.24,6.64-6.91.67-.41,2.13-1.16,2.28-1.19.02,0,.38.17.81.38Zm7.65,8.81c3.05.53,5.52,2.8,6.33,5.82.18.68.2.92.2,1.98s-.02,1.29-.2,1.98c-.57,2.12-2.03,3.98-3.92,4.99-4.53,2.41-10.06-.02-11.39-4.99-.29-1.13-.29-2.82,0-3.95,1.06-3.98,4.98-6.52,8.98-5.82Zm9.29,11.37c.04.1.1.68.15,1.3.12,1.67.4,2.16,1.3,2.23.59.05.95-.16,1.93-1.1.46-.45.93-.85,1.05-.9.2-.09.26-.08.54.11.3.2.8.82,1.19,1.48l.19.32-.29.65c-1.64,3.68-4.81,6.96-8.47,8.78l-.91.46-.4-.14c-1-.33-1.61-.78-1.61-1.19,0-.29.03-.34.66-1.36.83-1.33.91-1.92.37-2.53-.43-.47-.98-.56-2.16-.35-1.17.21-1.32.22-1.47.08-.16-.17-.12-.63.15-1.4.38-1.12.48-1.25,1.18-1.58,1.4-.67,2.74-1.81,3.64-3.09.52-.74,1.05-1.2,1.93-1.64.7-.36.95-.39,1.05-.14Z"/>
    <path d="m108.39,39.03c-1.73.59-2.79,2.05-2.79,3.85s1.16,3.39,2.94,3.91c.55.16,1.64.16,2.19,0,1.77-.52,2.94-2.08,2.94-3.92s-1.18-3.37-2.94-3.89c-.64-.19-1.71-.16-2.33.05Zm2.35,1.48c.5.24,1.09.85,1.3,1.32.55,1.26-.04,2.81-1.31,3.43-.37.18-.54.21-1.1.22-.57,0-.72-.03-1.1-.22-1.6-.78-2.02-2.84-.83-4.12.6-.66,1.19-.91,2.06-.86.4.02.67.08.98.23Z"/>
  </g>
  <g>
    <path d="m43.37,62.03c-.15.02-.6.07-1.01.12-2.25.26-4.86,1.09-6.97,2.22-4.59,2.46-8.05,6.71-9.58,11.75-.57,1.87-.82,3.63-.82,5.64s.21,3.67.74,5.51c3.16,10.97,14.8,17.03,25.54,13.28,6.38-2.23,11.2-7.6,12.75-14.19.4-1.72.47-2.34.46-4.61,0-1.95-.02-2.23-.21-3.26-1.57-8.72-8.38-15.23-17.11-16.36-.68-.09-3.32-.16-3.8-.11Zm-4.93,3.2c.92.46,1.53.9,1.64,1.2.09.26.02.34-1.03.95-.9.53-1.24.82-1.42,1.23-.19.4-.18.69,0,1.1.2.46.67.74,1.89,1.12,1.04.33,1.44.58,1.44.9,0,.29-.26,1-.53,1.47-.22.4-.39.56-.9.91-.35.23-.85.62-1.11.86-.6.54-1.51,1.74-1.92,2.54-.29.57-.33.6-.74.77-.57.22-1.54.25-1.77.04-.17-.16-.28-.69-.36-1.78-.09-1.1-.39-1.74-.95-1.97-.67-.29-1.17-.05-2.31,1.11-.48.48-.91.88-.95.88-.11,0-.37-.31-.53-.61-.21-.42-.35-.85-.5-1.57l-.14-.67.43-.77c1.59-2.88,3.87-5.24,6.64-6.91.67-.41,2.13-1.16,2.28-1.19.02,0,.38.17.81.38Zm7.65,8.81c3.05.53,5.52,2.8,6.33,5.82.18.68.2.92.2,1.98s-.02,1.29-.2,1.98c-.57,2.12-2.03,3.98-3.92,4.99-4.53,2.41-10.06-.02-11.39-4.99-.29-1.13-.29-2.82,0-3.95,1.06-3.98,4.98-6.52,8.98-5.82Zm9.29,11.37c.04.1.1.68.15,1.3.12,1.67.4,2.16,1.3,2.23.59.05.95-.16,1.93-1.1.46-.45.93-.85,1.05-.9.2-.09.26-.08.54.11.3.2.8.82,1.19,1.48l.19.32-.29.65c-1.64,3.68-4.81,6.96-8.47,8.78l-.91.46-.4-.14c-1-.33-1.61-.78-1.61-1.19,0-.29.03-.34.66-1.36.83-1.33.91-1.92.37-2.53-.43-.47-.98-.56-2.16-.35-1.17.21-1.32.22-1.47.08-.16-.17-.12-.63.15-1.4.38-1.12.48-1.25,1.18-1.58,1.4-.67,2.74-1.81,3.64-3.09.52-.74,1.05-1.2,1.93-1.64.7-.36.95-.39,1.05-.14Z"/>
    <path d="m43.52,77.98c-1.73.59-2.79,2.05-2.79,3.85s1.16,3.39,2.94,3.91c.55.16,1.64.16,2.19,0,1.77-.52,2.94-2.08,2.94-3.92s-1.18-3.37-2.94-3.89c-.64-.19-1.71-.16-2.33.05Zm2.35,1.48c.5.24,1.09.85,1.3,1.32.55,1.26-.04,2.81-1.31,3.43-.37.18-.54.21-1.1.22-.57,0-.72-.03-1.1-.22-1.6-.78-2.02-2.84-.83-4.12.6-.66,1.19-.91,2.06-.86.4.02.67.08.98.23Z"/>
  </g>
  <g>
    <path d="m97.11,57.23c-.15.02-.6.07-1.01.12-2.25.26-4.86,1.09-6.97,2.22-4.59,2.46-8.05,6.71-9.58,11.75-.57,1.87-.82,3.63-.82,5.64s.21,3.67.74,5.51c3.16,10.97,14.8,17.03,25.54,13.28,6.38-2.23,11.2-7.6,12.75-14.19.4-1.72.47-2.34.46-4.61,0-1.95-.02-2.23-.21-3.26-1.57-8.72-8.38-15.23-17.11-16.36-.68-.09-3.32-.16-3.8-.11Zm-4.93,3.2c.92.46,1.53.9,1.64,1.2.09.26.02.34-1.03.95-.9.53-1.24.82-1.42,1.23-.19.4-.18.69,0,1.1.2.46.67.74,1.89,1.12,1.04.33,1.44.58,1.44.9,0,.29-.26,1-.53,1.47-.22.4-.39.56-.9.91-.35.23-.85.62-1.11.86-.6.54-1.51,1.74-1.92,2.54-.29.57-.33.6-.74.77-.57.22-1.54.25-1.77.04-.17-.16-.28-.69-.36-1.78-.09-1.1-.39-1.74-.95-1.97-.67-.29-1.17-.05-2.31,1.11-.48.48-.91.88-.95.88-.11,0-.37-.31-.53-.61-.21-.42-.35-.85-.5-1.57l-.14-.67.43-.77c1.59-2.88,3.87-5.24,6.64-6.91.67-.41,2.13-1.16,2.28-1.19.02,0,.38.17.81.38Zm7.65,8.81c3.05.53,5.52,2.8,6.33,5.82.18.68.2.92.2,1.98s-.02,1.29-.2,1.98c-.57,2.12-2.03,3.98-3.92,4.99-4.53,2.41-10.06-.02-11.39-4.99-.29-1.13-.29-2.82,0-3.95,1.06-3.98,4.98-6.52,8.98-5.82Zm9.29,11.37c.04.1.1.68.15,1.3.12,1.67.4,2.16,1.3,2.23.59.05.95-.16,1.93-1.1.46-.45.93-.85,1.05-.9.2-.09.26-.08.54.11.3.2.8.82,1.19,1.48l.19.32-.29.65c-1.64,3.68-4.81,6.96-8.47,8.78l-.91.46-.4-.14c-1-.33-1.61-.78-1.61-1.19,0-.29.03-.34.66-1.36.83-1.33.91-1.92.37-2.53-.43-.47-.98-.56-2.16-.35-1.17.21-1.32.22-1.47.08-.16-.17-.12-.63.15-1.4.38-1.12.48-1.25,1.18-1.58,1.4-.67,2.74-1.81,3.64-3.09.52-.74,1.05-1.2,1.93-1.64.7-.36.95-.39,1.05-.14Z"/>
    <path d="m97.27,73.18c-1.73.59-2.79,2.05-2.79,3.85s1.16,3.39,2.94,3.91c.55.16,1.64.16,2.19,0,1.77-.52,2.94-2.08,2.94-3.92s-1.18-3.37-2.94-3.89c-.64-.19-1.71-.16-2.33.05Zm2.35,1.48c.5.24,1.09.85,1.3,1.32.55,1.26-.04,2.81-1.31,3.43-.37.18-.54.21-1.1.22-.57,0-.72-.03-1.1-.22-1.6-.78-2.02-2.84-.83-4.12.6-.66,1.19-.91,2.06-.86.4.02.67.08.98.23Z"/>
  </g>
  <g>
    <path d="m148.51,56.18c-.15.02-.6.07-1.01.12-2.25.26-4.86,1.09-6.97,2.22-4.59,2.46-8.05,6.71-9.58,11.75-.57,1.87-.82,3.63-.82,5.64s.21,3.67.74,5.51c3.16,10.97,14.8,17.03,25.54,13.28,6.38-2.23,11.2-7.6,12.75-14.19.4-1.72.47-2.34.46-4.61,0-1.95-.02-2.23-.21-3.26-1.57-8.72-8.38-15.23-17.11-16.36-.68-.09-3.32-.16-3.8-.11Zm-4.93,3.2c.92.46,1.53.9,1.64,1.2.09.26.02.34-1.03.95-.9.53-1.24.82-1.42,1.23-.19.4-.18.69,0,1.1.2.46.67.74,1.89,1.12,1.04.33,1.44.58,1.44.9,0,.29-.26,1-.53,1.47-.22.4-.39.56-.9.91-.35.23-.85.62-1.11.86-.6.54-1.51,1.74-1.92,2.54-.29.57-.33.6-.74.77-.57.22-1.54.25-1.77.04-.17-.16-.28-.69-.36-1.78-.09-1.1-.39-1.74-.95-1.97-.67-.29-1.17-.05-2.31,1.11-.48.48-.91.88-.95.88-.11,0-.37-.31-.53-.61-.21-.42-.35-.85-.5-1.57l-.14-.67.43-.77c1.59-2.88,3.87-5.24,6.64-6.91.67-.41,2.13-1.16,2.28-1.19.02,0,.38.17.81.38Zm7.65,8.81c3.05.53,5.52,2.8,6.33,5.82.18.68.2.92.2,1.98s-.02,1.29-.2,1.98c-.57,2.12-2.03,3.98-3.92,4.99-4.53,2.41-10.06-.02-11.39-4.99-.29-1.13-.29-2.82,0-3.95,1.06-3.98,4.98-6.52,8.98-5.82Zm9.29,11.37c.04.1.1.68.15,1.3.12,1.67.4,2.16,1.3,2.23.59.05.95-.16,1.93-1.1.46-.45.93-.85,1.05-.9.2-.09.26-.08.54.11.3.2.8.82,1.19,1.48l.19.32-.29.65c-1.64,3.68-4.81,6.96-8.47,8.78l-.91.46-.4-.14c-1-.33-1.61-.78-1.61-1.19,0-.29.03-.34.66-1.36.83-1.33.91-1.92.37-2.53-.43-.47-.98-.56-2.16-.35-1.17.21-1.32.22-1.47.08-.16-.17-.12-.63.15-1.4.38-1.12.48-1.25,1.18-1.58,1.4-.67,2.74-1.81,3.64-3.09.52-.74,1.05-1.2,1.93-1.64.7-.36.95-.39,1.05-.14Z"/>
    <path d="m148.67,72.13c-1.73.59-2.79,2.05-2.79,3.85s1.16,3.39,2.94,3.91c.55.16,1.64.16,2.19,0,1.77-.52,2.94-2.08,2.94-3.92s-1.18-3.37-2.94-3.89c-.64-.19-1.71-.16-2.33.05Zm2.35,1.48c.5.24,1.09.85,1.3,1.32.55,1.26-.04,2.81-1.31,3.43-.37.18-.54.21-1.1.22-.57,0-.72-.03-1.1-.22-1.6-.78-2.02-2.84-.83-4.12.6-.66,1.19-.91,2.06-.86.4.02.67.08.98.23Z"/>
  </g>
  <g>
    <path d="m42.05,4.04c-.15.02-.6.07-1.01.12-2.25.26-4.86,1.09-6.97,2.22-4.59,2.46-8.05,6.71-9.58,11.75-.57,1.87-.82,3.63-.82,5.64s.21,3.67.74,5.51c3.16,10.97,14.8,17.03,25.54,13.28,6.38-2.23,11.2-7.6,12.75-14.19.4-1.72.47-2.34.46-4.61,0-1.95-.02-2.23-.21-3.26-1.57-8.72-8.38-15.23-17.11-16.36-.68-.09-3.32-.16-3.8-.11Zm-4.93,3.2c.92.46,1.53.9,1.64,1.2.09.26.02.34-1.03.95-.9.53-1.24.82-1.42,1.23-.19.4-.18.69,0,1.1.2.46.67.74,1.89,1.12,1.04.33,1.44.58,1.44.9,0,.29-.26,1-.53,1.47-.22.4-.39.56-.9.91-.35.23-.85.62-1.11.86-.6.54-1.51,1.74-1.92,2.54-.29.57-.33.6-.74.77-.57.22-1.54.25-1.77.04-.17-.16-.28-.69-.36-1.78-.09-1.1-.39-1.74-.95-1.97-.67-.29-1.17-.05-2.31,1.11-.48.48-.91.88-.95.88-.11,0-.37-.31-.53-.61-.21-.42-.35-.85-.5-1.57l-.14-.67.43-.77c1.59-2.88,3.87-5.24,6.64-6.91.67-.41,2.13-1.16,2.28-1.19.02,0,.38.17.81.38Zm7.65,8.81c3.05.53,5.52,2.8,6.33,5.82.18.68.2.92.2,1.98s-.02,1.29-.2,1.98c-.57,2.12-2.03,3.98-3.92,4.99-4.53,2.41-10.06-.02-11.39-4.99-.29-1.13-.29-2.82,0-3.95,1.06-3.98,4.98-6.52,8.98-5.82Zm9.29,11.37c.04.1.1.68.15,1.3.12,1.67.4,2.16,1.3,2.23.59.05.95-.16,1.93-1.1.46-.45.93-.85,1.05-.9.2-.09.26-.08.54.11.3.2.8.82,1.19,1.48l.19.32-.29.65c-1.64,3.68-4.81,6.96-8.47,8.78l-.91.46-.4-.14c-1-.33-1.61-.78-1.61-1.19,0-.29.03-.34.66-1.36.83-1.33.91-1.92.37-2.53-.43-.47-.98-.56-2.16-.35-1.17.21-1.32.22-1.47.08-.16-.17-.12-.63.15-1.4.38-1.12.48-1.25,1.18-1.58,1.4-.67,2.74-1.81,3.64-3.09.52-.74,1.05-1.2,1.93-1.64.7-.36.95-.39,1.05-.14Z"/>
    <path d="m42.2,19.99c-1.73.59-2.79,2.05-2.79,3.85s1.16,3.39,2.94,3.91c.55.16,1.64.16,2.19,0,1.77-.52,2.94-2.08,2.94-3.92s-1.18-3.37-2.94-3.89c-.64-.19-1.71-.16-2.33.05Zm2.35,1.48c.5.24,1.09.85,1.3,1.32.55,1.26-.04,2.81-1.31,3.43-.37.18-.54.21-1.1.22-.57,0-.72-.03-1.1-.22-1.6-.78-2.02-2.84-.83-4.12.6-.66,1.19-.91,2.06-.86.4.02.67.08.98.23Z"/>
  </g>
  <g>
    <path d="m120.3.02c-.15.02-.6.07-1.01.12-2.25.26-4.86,1.09-6.97,2.22-4.59,2.46-8.05,6.71-9.58,11.75-.57,1.87-.82,3.63-.82,5.64s.21,3.67.74,5.51c3.16,10.97,14.8,17.03,25.54,13.28,6.38-2.23,11.2-7.6,12.75-14.19.4-1.72.47-2.34.46-4.61,0-1.95-.02-2.23-.21-3.26-1.57-8.72-8.38-15.23-17.11-16.36-.68-.09-3.32-.16-3.8-.11Zm-4.93,3.2c.92.46,1.53.9,1.64,1.2.09.26.02.34-1.03.95-.9.53-1.24.82-1.42,1.23-.19.4-.18.69,0,1.1.2.46.67.74,1.89,1.12,1.04.33,1.44.58,1.44.9,0,.29-.26,1-.53,1.47-.22.4-.39.56-.9.91-.35.23-.85.62-1.11.86-.6.54-1.51,1.74-1.92,2.54-.29.57-.33.6-.74.77-.57.22-1.54.25-1.77.04-.17-.16-.28-.69-.36-1.78-.09-1.1-.39-1.74-.95-1.97-.67-.29-1.17-.05-2.31,1.11-.48.48-.91.88-.95.88-.11,0-.37-.31-.53-.61-.21-.42-.35-.85-.5-1.57l-.14-.67.43-.77c1.59-2.88,3.87-5.24,6.64-6.91.67-.41,2.13-1.16,2.28-1.19.02,0,.38.17.81.38Zm7.65,8.81c3.05.53,5.52,2.8,6.33,5.82.18.68.2.92.2,1.98s-.02,1.29-.2,1.98c-.57,2.12-2.03,3.98-3.92,4.99-4.53,2.41-10.06-.02-11.39-4.99-.29-1.13-.29-2.82,0-3.95,1.06-3.98,4.98-6.52,8.98-5.82Zm9.29,11.37c.04.1.1.68.15,1.3.12,1.67.4,2.16,1.3,2.23.59.05.95-.16,1.93-1.1.46-.45.93-.85,1.05-.9.2-.09.26-.08.54.11.3.2.8.82,1.19,1.48l.19.32-.29.65c-1.64,3.68-4.81,6.96-8.47,8.78l-.91.46-.4-.14c-1-.33-1.61-.78-1.61-1.19,0-.29.03-.34.66-1.36.83-1.33.91-1.92.37-2.53-.43-.47-.98-.56-2.16-.35-1.17.21-1.32.22-1.47.08-.16-.17-.12-.63.15-1.4.38-1.12.48-1.25,1.18-1.58,1.4-.67,2.74-1.81,3.64-3.09.52-.74,1.05-1.2,1.93-1.64.7-.36.95-.39,1.05-.14Z"/>
    <path d="m120.45,15.97c-1.73.59-2.79,2.05-2.79,3.85s1.16,3.39,2.94,3.91c.55.16,1.64.16,2.19,0,1.77-.52,2.94-2.08,2.94-3.92s-1.18-3.37-2.94-3.89c-.64-.19-1.71-.16-2.33.05Zm2.35,1.48c.5.24,1.09.85,1.3,1.32.55,1.26-.04,2.81-1.31,3.43-.37.18-.54.21-1.1.22-.57,0-.72-.03-1.1-.22-1.6-.78-2.02-2.84-.83-4.12.6-.66,1.19-.91,2.06-.86.4.02.67.08.98.23Z"/>
  </g>
  <g>
    <path d="m62.37,90.18c-.15.02-.6.07-1.01.12-2.25.26-4.86,1.09-6.97,2.22-4.59,2.46-8.05,6.71-9.58,11.75-.57,1.87-.82,3.63-.82,5.64s.21,3.67.74,5.51c3.16,10.97,14.8,17.03,25.54,13.28,6.38-2.23,11.2-7.6,12.75-14.19.4-1.72.47-2.34.46-4.61,0-1.95-.02-2.23-.21-3.26-1.57-8.72-8.38-15.23-17.11-16.36-.68-.09-3.32-.16-3.8-.11Zm-4.93,3.2c.92.46,1.53.9,1.64,1.2.09.26.02.34-1.03.95-.9.53-1.24.82-1.42,1.23-.19.4-.18.69,0,1.1.2.46.67.74,1.89,1.12,1.04.33,1.44.58,1.44.9,0,.29-.26,1-.53,1.47-.22.4-.39.56-.9.91-.35.23-.85.62-1.11.86-.6.54-1.51,1.74-1.92,2.54-.29.57-.33.6-.74.77-.57.22-1.54.25-1.77.04-.17-.16-.28-.69-.36-1.78-.09-1.1-.39-1.74-.95-1.97-.67-.29-1.17-.05-2.31,1.11-.48.48-.91.88-.95.88-.11,0-.37-.31-.53-.61-.21-.42-.35-.85-.5-1.57l-.14-.67.43-.77c1.59-2.88,3.87-5.24,6.64-6.91.67-.41,2.13-1.16,2.28-1.19.02,0,.38.17.81.38Zm7.65,8.81c3.05.53,5.52,2.8,6.33,5.82.18.68.2.92.2,1.98s-.02,1.29-.2,1.98c-.57,2.12-2.03,3.98-3.92,4.99-4.53,2.41-10.06-.02-11.39-4.99-.29-1.13-.29-2.82,0-3.95,1.06-3.98,4.98-6.52,8.98-5.82Zm9.29,11.37c.04.1.1.68.15,1.3.12,1.67.4,2.16,1.3,2.23.59.05.95-.16,1.93-1.1.46-.45.93-.85,1.05-.9.2-.09.26-.08.54.11.3.2.8.82,1.19,1.48l.19.32-.29.65c-1.64,3.68-4.81,6.96-8.47,8.78l-.91.46-.4-.14c-1-.33-1.61-.78-1.61-1.19,0-.29.03-.34.66-1.36.83-1.33.91-1.92.37-2.53-.43-.47-.98-.56-2.16-.35-1.17.21-1.32.22-1.47.08-.16-.17-.12-.63.15-1.4.38-1.12.48-1.25,1.18-1.58,1.4-.67,2.74-1.81,3.64-3.09.52-.74,1.05-1.2,1.93-1.64.7-.36.95-.39,1.05-.14Z"/>
    <path d="m62.53,106.13c-1.73.59-2.79,2.05-2.79,3.85s1.16,3.39,2.94,3.91c.55.16,1.64.16,2.19,0,1.77-.52,2.94-2.08,2.94-3.92s-1.18-3.37-2.94-3.89c-.64-.19-1.71-.16-2.33.05Zm2.35,1.48c.5.24,1.09.85,1.3,1.32.55,1.26-.04,2.81-1.31,3.43-.37.18-.54.21-1.1.22-.57,0-.72-.03-1.1-.22-1.6-.78-2.02-2.84-.83-4.12.6-.66,1.19-.91,2.06-.86.4.02.67.08.98.23Z"/>
  </g>
  <g>
    <path d="m124.1,90.18c-.15.02-.6.07-1.01.12-2.25.26-4.86,1.09-6.97,2.22-4.59,2.46-8.05,6.71-9.58,11.75-.57,1.87-.82,3.63-.82,5.64s.21,3.67.74,5.51c3.16,10.97,14.8,17.03,25.54,13.28,6.38-2.23,11.2-7.6,12.75-14.19.4-1.72.47-2.34.46-4.61,0-1.95-.02-2.23-.21-3.26-1.57-8.72-8.38-15.23-17.11-16.36-.68-.09-3.32-.16-3.8-.11Zm-4.93,3.2c.92.46,1.53.9,1.64,1.2.09.26.02.34-1.03.95-.9.53-1.24.82-1.42,1.23-.19.4-.18.69,0,1.1.2.46.67.74,1.89,1.12,1.04.33,1.44.58,1.44.9,0,.29-.26,1-.53,1.47-.22.4-.39.56-.9.91-.35.23-.85.62-1.11.86-.6.54-1.51,1.74-1.92,2.54-.29.57-.33.6-.74.77-.57.22-1.54.25-1.77.04-.17-.16-.28-.69-.36-1.78-.09-1.1-.39-1.74-.95-1.97-.67-.29-1.17-.05-2.31,1.11-.48.48-.91.88-.95.88-.11,0-.37-.31-.53-.61-.21-.42-.35-.85-.5-1.57l-.14-.67.43-.77c1.59-2.88,3.87-5.24,6.64-6.91.67-.41,2.13-1.16,2.28-1.19.02,0,.38.17.81.38Zm7.65,8.81c3.05.53,5.52,2.8,6.33,5.82.18.68.2.92.2,1.98s-.02,1.29-.2,1.98c-.57,2.12-2.03,3.98-3.92,4.99-4.53,2.41-10.06-.02-11.39-4.99-.29-1.13-.29-2.82,0-3.95,1.06-3.98,4.98-6.52,8.98-5.82Zm9.29,11.37c.04.1.1.68.15,1.3.12,1.67.4,2.16,1.3,2.23.59.05.95-.16,1.93-1.1.46-.45.93-.85,1.05-.9.2-.09.26-.08.54.11.3.2.8.82,1.19,1.48l.19.32-.29.65c-1.64,3.68-4.81,6.96-8.47,8.78l-.91.46-.4-.14c-1-.33-1.61-.78-1.61-1.19,0-.29.03-.34.66-1.36.83-1.33.91-1.92.37-2.53-.43-.47-.98-.56-2.16-.35-1.17.21-1.32.22-1.47.08-.16-.17-.12-.63.15-1.4.38-1.12.48-1.25,1.18-1.58,1.4-.67,2.74-1.81,3.64-3.09.52-.74,1.05-1.2,1.93-1.64.7-.36.95-.39,1.05-.14Z"/>
    <path d="m124.25,106.13c-1.73.59-2.79,2.05-2.79,3.85s1.16,3.39,2.94,3.91c.55.16,1.64.16,2.19,0,1.77-.52,2.94-2.08,2.94-3.92s-1.18-3.37-2.94-3.89c-.64-.19-1.71-.16-2.33.05Zm2.35,1.48c.5.24,1.09.85,1.3,1.32.55,1.26-.04,2.81-1.31,3.43-.37.18-.54.21-1.1.22-.57,0-.72-.03-1.1-.22-1.6-.78-2.02-2.84-.83-4.12.6-.66,1.19-.91,2.06-.86.4.02.67.08.98.23Z"/>
  </g>
  <g>
    <path d="m77.03,112.6c-.15.02-.6.07-1.01.12-2.25.26-4.86,1.09-6.97,2.22-4.59,2.46-8.05,6.71-9.58,11.75-.57,1.87-.82,3.63-.82,5.64s.21,3.67.74,5.51c3.16,10.97,14.8,17.03,25.54,13.28,6.38-2.23,11.2-7.6,12.75-14.19.4-1.72.47-2.34.46-4.61,0-1.95-.02-2.23-.21-3.26-1.57-8.72-8.38-15.23-17.11-16.36-.68-.09-3.32-.16-3.8-.11Zm-4.93,3.2c.92.46,1.53.9,1.64,1.2.09.26.02.34-1.03.95-.9.53-1.24.82-1.42,1.23-.19.4-.18.69,0,1.1.2.46.67.74,1.89,1.12,1.04.33,1.44.58,1.44.9,0,.29-.26,1-.53,1.47-.22.4-.39.56-.9.91-.35.23-.85.62-1.11.86-.6.54-1.51,1.74-1.92,2.54-.29.57-.33.6-.74.77-.57.22-1.54.25-1.77.04-.17-.16-.28-.69-.36-1.78-.09-1.1-.39-1.74-.95-1.97-.67-.29-1.17-.05-2.31,1.11-.48.48-.91.88-.95.88-.11,0-.37-.31-.53-.61-.21-.42-.35-.85-.5-1.57l-.14-.67.43-.77c1.59-2.88,3.87-5.24,6.64-6.91.67-.41,2.13-1.16,2.28-1.19.02,0,.38.17.81.38Zm7.65,8.81c3.05.53,5.52,2.8,6.33,5.82.18.68.2.92.2,1.98s-.02,1.29-.2,1.98c-.57,2.12-2.03,3.98-3.92,4.99-4.53,2.41-10.06-.02-11.39-4.99-.29-1.13-.29-2.82,0-3.95,1.06-3.98,4.98-6.52,8.98-5.82Zm9.29,11.37c.04.1.1.68.15,1.3.12,1.67.4,2.16,1.3,2.23.59.05.95-.16,1.93-1.1.46-.45.93-.85,1.05-.9.2-.09.26-.08.54.11.3.2.8.82,1.19,1.48l.19.32-.29.65c-1.64,3.68-4.81,6.96-8.47,8.78l-.91.46-.4-.14c-1-.33-1.61-.78-1.61-1.19,0-.29.03-.34.66-1.36.83-1.33.91-1.92.37-2.53-.43-.47-.98-.56-2.16-.35-1.17.21-1.32.22-1.47.08-.16-.17-.12-.63.15-1.4.38-1.12.48-1.25,1.18-1.58,1.4-.67,2.74-1.81,3.64-3.09.52-.74,1.05-1.2,1.93-1.64.7-.36.95-.39,1.05-.14Z"/>
    <path d="m77.19,128.55c-1.73.59-2.79,2.05-2.79,3.85s1.16,3.39,2.94,3.91c.55.16,1.64.16,2.19,0,1.77-.52,2.94-2.08,2.94-3.92s-1.18-3.37-2.94-3.89c-.64-.19-1.71-.16-2.33.05Zm2.35,1.48c.5.24,1.09.85,1.3,1.32.55,1.26-.04,2.81-1.31,3.43-.37.18-.54.21-1.1.22-.57,0-.72-.03-1.1-.22-1.6-.78-2.02-2.84-.83-4.12.6-.66,1.19-.91,2.06-.86.4.02.67.08.98.23Z"/>
  </g>
  <g>
    <path d="m47.14,115.19c-.15.02-.6.07-1.01.12-2.25.26-4.86,1.09-6.97,2.22-4.59,2.46-8.05,6.71-9.58,11.75-.57,1.87-.82,3.63-.82,5.64s.21,3.67.74,5.51c3.16,10.97,14.8,17.03,25.54,13.28,6.38-2.23,11.2-7.6,12.75-14.19.4-1.72.47-2.34.46-4.61,0-1.95-.02-2.23-.21-3.26-1.57-8.72-8.38-15.23-17.11-16.36-.68-.09-3.32-.16-3.8-.11Zm-4.93,3.2c.92.46,1.53.9,1.64,1.2.09.26.02.34-1.03.95-.9.53-1.24.82-1.42,1.23-.19.4-.18.69,0,1.1.2.46.67.74,1.89,1.12,1.04.33,1.44.58,1.44.9,0,.29-.26,1-.53,1.47-.22.4-.39.56-.9.91-.35.23-.85.62-1.11.86-.6.54-1.51,1.74-1.92,2.54-.29.57-.33.6-.74.77-.57.22-1.54.25-1.77.04-.17-.16-.28-.69-.36-1.78-.09-1.1-.39-1.74-.95-1.97-.67-.29-1.17-.05-2.31,1.11-.48.48-.91.88-.95.88-.11,0-.37-.31-.53-.61-.21-.42-.35-.85-.5-1.57l-.14-.67.43-.77c1.59-2.88,3.87-5.24,6.64-6.91.67-.41,2.13-1.16,2.28-1.19.02,0,.38.17.81.38Zm7.65,8.81c3.05.53,5.52,2.8,6.33,5.82.18.68.2.92.2,1.98s-.02,1.29-.2,1.98c-.57,2.12-2.03,3.98-3.92,4.99-4.53,2.41-10.06-.02-11.39-4.99-.29-1.13-.29-2.82,0-3.95,1.06-3.98,4.98-6.52,8.98-5.82Zm9.29,11.37c.04.1.1.68.15,1.3.12,1.67.4,2.16,1.3,2.23.59.05.95-.16,1.93-1.1.46-.45.93-.85,1.05-.9.2-.09.26-.08.54.11.3.2.8.82,1.19,1.48l.19.32-.29.65c-1.64,3.68-4.81,6.96-8.47,8.78l-.91.46-.4-.14c-1-.33-1.61-.78-1.61-1.19,0-.29.03-.34.66-1.36.83-1.33.91-1.92.37-2.53-.43-.47-.98-.56-2.16-.35-1.17.21-1.32.22-1.47.08-.16-.17-.12-.63.15-1.4.38-1.12.48-1.25,1.18-1.58,1.4-.67,2.74-1.81,3.64-3.09.52-.74,1.05-1.2,1.93-1.64.7-.36.95-.39,1.05-.14Z"/>
    <path d="m47.3,131.14c-1.73.59-2.79,2.05-2.79,3.85s1.16,3.39,2.94,3.91c.55.16,1.64.16,2.19,0,1.77-.52,2.94-2.08,2.94-3.92s-1.18-3.37-2.94-3.89c-.64-.19-1.71-.16-2.33.05Zm2.35,1.48c.5.24,1.09.85,1.3,1.32.55,1.26-.04,2.81-1.31,3.43-.37.18-.54.21-1.1.22-.57,0-.72-.03-1.1-.22-1.6-.78-2.02-2.84-.83-4.12.6-.66,1.19-.91,2.06-.86.4.02.67.08.98.23Z"/>
  </g>
  <g>
    <path d="m107.24,112.57c-.15.02-.6.07-1.01.12-2.25.26-4.86,1.09-6.97,2.22-4.59,2.46-8.05,6.71-9.58,11.75-.57,1.87-.82,3.63-.82,5.64s.21,3.67.74,5.51c3.16,10.97,14.8,17.03,25.54,13.28,6.38-2.23,11.2-7.6,12.75-14.19.4-1.72.47-2.34.46-4.61,0-1.95-.02-2.23-.21-3.26-1.57-8.72-8.38-15.23-17.11-16.36-.68-.09-3.32-.16-3.8-.11Zm-4.93,3.2c.92.46,1.53.9,1.64,1.2.09.26.02.34-1.03.95-.9.53-1.24.82-1.42,1.23-.19.4-.18.69,0,1.1.2.46.67.74,1.89,1.12,1.04.33,1.44.58,1.44.9,0,.29-.26,1-.53,1.47-.22.4-.39.56-.9.91-.35.23-.85.62-1.11.86-.6.54-1.51,1.74-1.92,2.54-.29.57-.33.6-.74.77-.57.22-1.54.25-1.77.04-.17-.16-.28-.69-.36-1.78-.09-1.1-.39-1.74-.95-1.97-.67-.29-1.17-.05-2.31,1.11-.48.48-.91.88-.95.88-.11,0-.37-.31-.53-.61-.21-.42-.35-.85-.5-1.57l-.14-.67.43-.77c1.59-2.88,3.87-5.24,6.64-6.91.67-.41,2.13-1.16,2.28-1.19.02,0,.38.17.81.38Zm7.65,8.81c3.05.53,5.52,2.8,6.33,5.82.18.68.2.92.2,1.98s-.02,1.29-.2,1.98c-.57,2.12-2.03,3.98-3.92,4.99-4.53,2.41-10.06-.02-11.39-4.99-.29-1.13-.29-2.82,0-3.95,1.06-3.98,4.98-6.52,8.98-5.82Zm9.29,11.37c.04.1.1.68.15,1.3.12,1.67.4,2.16,1.3,2.23.59.05.95-.16,1.93-1.1.46-.45.93-.85,1.05-.9.2-.09.26-.08.54.11.3.2.8.82,1.19,1.48l.19.32-.29.65c-1.64,3.68-4.81,6.96-8.47,8.78l-.91.46-.4-.14c-1-.33-1.61-.78-1.61-1.19,0-.29.03-.34.66-1.36.83-1.33.91-1.92.37-2.53-.43-.47-.98-.56-2.16-.35-1.17.21-1.32.22-1.47.08-.16-.17-.12-.63.15-1.4.38-1.12.48-1.25,1.18-1.58,1.4-.67,2.74-1.81,3.64-3.09.52-.74,1.05-1.2,1.93-1.64.7-.36.95-.39,1.05-.14Z"/>
    <path d="m107.39,128.52c-1.73.59-2.79,2.05-2.79,3.85s1.16,3.39,2.94,3.91c.55.16,1.64.16,2.19,0,1.77-.52,2.94-2.08,2.94-3.92s-1.18-3.37-2.94-3.89c-.64-.19-1.71-.16-2.33.05Zm2.35,1.48c.5.24,1.09.85,1.3,1.32.55,1.26-.04,2.81-1.31,3.43-.37.18-.54.21-1.1.22-.57,0-.72-.03-1.1-.22-1.6-.78-2.02-2.84-.83-4.12.6-.66,1.19-.91,2.06-.86.4.02.67.08.98.23Z"/>
  </g>
  <g>
    <path d="m139.81,115.19c-.15.02-.6.07-1.01.12-2.25.26-4.86,1.09-6.97,2.22-4.59,2.46-8.05,6.71-9.58,11.75-.57,1.87-.82,3.63-.82,5.64s.21,3.67.74,5.51c3.16,10.97,14.8,17.03,25.54,13.28,6.38-2.23,11.2-7.6,12.75-14.19.4-1.72.47-2.34.46-4.61,0-1.95-.02-2.23-.21-3.26-1.57-8.72-8.38-15.23-17.11-16.36-.68-.09-3.32-.16-3.8-.11Zm-4.93,3.2c.92.46,1.53.9,1.64,1.2.09.26.02.34-1.03.95-.9.53-1.24.82-1.42,1.23-.19.4-.18.69,0,1.1.2.46.67.74,1.89,1.12,1.04.33,1.44.58,1.44.9,0,.29-.26,1-.53,1.47-.22.4-.39.56-.9.91-.35.23-.85.62-1.11.86-.6.54-1.51,1.74-1.92,2.54-.29.57-.33.6-.74.77-.57.22-1.54.25-1.77.04-.17-.16-.28-.69-.36-1.78-.09-1.1-.39-1.74-.95-1.97-.67-.29-1.17-.05-2.31,1.11-.48.48-.91.88-.95.88-.11,0-.37-.31-.53-.61-.21-.42-.35-.85-.5-1.57l-.14-.67.43-.77c1.59-2.88,3.87-5.24,6.64-6.91.67-.41,2.13-1.16,2.28-1.19.02,0,.38.17.81.38Zm7.65,8.81c3.05.53,5.52,2.8,6.33,5.82.18.68.2.92.2,1.98s-.02,1.29-.2,1.98c-.57,2.12-2.03,3.98-3.92,4.99-4.53,2.41-10.06-.02-11.39-4.99-.29-1.13-.29-2.82,0-3.95,1.06-3.98,4.98-6.52,8.98-5.82Zm9.29,11.37c.04.1.1.68.15,1.3.12,1.67.4,2.16,1.3,2.23.59.05.95-.16,1.93-1.1.46-.45.93-.85,1.05-.9.2-.09.26-.08.54.11.3.2.8.82,1.19,1.48l.19.32-.29.65c-1.64,3.68-4.81,6.96-8.47,8.78l-.91.46-.4-.14c-1-.33-1.61-.78-1.61-1.19,0-.29.03-.34.66-1.36.83-1.33.91-1.92.37-2.53-.43-.47-.98-.56-2.16-.35-1.17.21-1.32.22-1.47.08-.16-.17-.12-.63.15-1.4.38-1.12.48-1.25,1.18-1.58,1.4-.67,2.74-1.81,3.64-3.09.52-.74,1.05-1.2,1.93-1.64.7-.36.95-.39,1.05-.14Z"/>
    <path d="m139.97,131.14c-1.73.59-2.79,2.05-2.79,3.85s1.16,3.39,2.94,3.91c.55.16,1.64.16,2.19,0,1.77-.52,2.94-2.08,2.94-3.92s-1.18-3.37-2.94-3.89c-.64-.19-1.71-.16-2.33.05Zm2.35,1.48c.5.24,1.09.85,1.3,1.32.55,1.26-.04,2.81-1.31,3.43-.37.18-.54.21-1.1.22-.57,0-.72-.03-1.1-.22-1.6-.78-2.02-2.84-.83-4.12.6-.66,1.19-.91,2.06-.86.4.02.67.08.98.23Z"/>
  </g>
  <g>
    <path d="m56.53,34.06c-.15.02-.6.07-1.01.12-2.25.26-4.86,1.09-6.97,2.22-4.59,2.46-8.05,6.71-9.58,11.75-.57,1.87-.82,3.63-.82,5.64s.21,3.67.74,5.51c3.16,10.97,14.8,17.03,25.54,13.28,6.38-2.23,11.2-7.6,12.75-14.19.4-1.72.47-2.34.46-4.61,0-1.95-.02-2.23-.21-3.26-1.57-8.72-8.38-15.23-17.11-16.36-.68-.09-3.32-.16-3.8-.11Zm-4.93,3.2c.92.46,1.53.9,1.64,1.2.09.26.02.34-1.03.95-.9.53-1.24.82-1.42,1.23-.19.4-.18.69,0,1.1.2.46.67.74,1.89,1.12,1.04.33,1.44.58,1.44.9,0,.29-.26,1-.53,1.47-.22.4-.39.56-.9.91-.35.23-.85.62-1.11.86-.6.54-1.51,1.74-1.92,2.54-.29.57-.33.6-.74.77-.57.22-1.54.25-1.77.04-.17-.16-.28-.69-.36-1.78-.09-1.1-.39-1.74-.95-1.97-.67-.29-1.17-.05-2.31,1.11-.48.48-.91.88-.95.88-.11,0-.37-.31-.53-.61-.21-.42-.35-.85-.5-1.57l-.14-.67.43-.77c1.59-2.88,3.87-5.24,6.64-6.91.67-.41,2.13-1.16,2.28-1.19.02,0,.38.17.81.38Zm7.65,8.81c3.05.53,5.52,2.8,6.33,5.82.18.68.2.92.2,1.98s-.02,1.29-.2,1.98c-.57,2.12-2.03,3.98-3.92,4.99-4.53,2.41-10.06-.02-11.39-4.99-.29-1.13-.29-2.82,0-3.95,1.06-3.98,4.98-6.52,8.98-5.82Zm9.29,11.37c.04.1.1.68.15,1.3.12,1.67.4,2.16,1.3,2.23.59.05.95-.16,1.93-1.1.46-.45.93-.85,1.05-.9.2-.09.26-.08.54.11.3.2.8.82,1.19,1.48l.19.32-.29.65c-1.64,3.68-4.81,6.96-8.47,8.78l-.91.46-.4-.14c-1-.33-1.61-.78-1.61-1.19,0-.29.03-.34.66-1.36.83-1.33.91-1.92.37-2.53-.43-.47-.98-.56-2.16-.35-1.17.21-1.32.22-1.47.08-.16-.17-.12-.63.15-1.4.38-1.12.48-1.25,1.18-1.58,1.4-.67,2.74-1.81,3.64-3.09.52-.74,1.05-1.2,1.93-1.64.7-.36.95-.39,1.05-.14Z"/>
    <path d="m56.69,50.01c-1.73.59-2.79,2.05-2.79,3.85s1.16,3.39,2.94,3.91c.55.16,1.64.16,2.19,0,1.77-.52,2.94-2.08,2.94-3.92s-1.18-3.37-2.94-3.89c-.64-.19-1.71-.16-2.33.05Zm2.35,1.48c.5.24,1.09.85,1.3,1.32.55,1.26-.04,2.81-1.31,3.43-.37.18-.54.21-1.1.22-.57,0-.72-.03-1.1-.22-1.6-.78-2.02-2.84-.83-4.12.6-.66,1.19-.91,2.06-.86.4.02.67.08.98.23Z"/>
  </g>
  <g>
    <path d="m159.56,25.67c-.15.02-.6.07-1.01.12-2.25.26-4.86,1.09-6.97,2.22-4.59,2.46-8.05,6.71-9.58,11.75-.57,1.87-.82,3.63-.82,5.64s.21,3.67.74,5.51c3.16,10.97,14.8,17.03,25.54,13.28,6.38-2.23,11.2-7.6,12.75-14.19.4-1.72.47-2.34.46-4.61,0-1.95-.02-2.23-.21-3.26-1.57-8.72-8.38-15.23-17.11-16.36-.68-.09-3.32-.16-3.8-.11Zm-4.93,3.2c.92.46,1.53.9,1.64,1.2.09.26.02.34-1.03.95-.9.53-1.24.82-1.42,1.23-.19.4-.18.69,0,1.1.2.46.67.74,1.89,1.12,1.04.33,1.44.58,1.44.9,0,.29-.26,1-.53,1.47-.22.4-.39.56-.9.91-.35.23-.85.62-1.11.86-.6.54-1.51,1.74-1.92,2.54-.29.57-.33.6-.74.77-.57.22-1.54.25-1.77.04-.17-.16-.28-.69-.36-1.78-.09-1.1-.39-1.74-.95-1.97-.67-.29-1.17-.05-2.31,1.11-.48.48-.91.88-.95.88-.11,0-.37-.31-.53-.61-.21-.42-.35-.85-.5-1.57l-.14-.67.43-.77c1.59-2.88,3.87-5.24,6.64-6.91.67-.41,2.13-1.16,2.28-1.19.02,0,.38.17.81.38Zm7.65,8.81c3.05.53,5.52,2.8,6.33,5.82.18.68.2.92.2,1.98s-.02,1.29-.2,1.98c-.57,2.12-2.03,3.98-3.92,4.99-4.53,2.41-10.06-.02-11.39-4.99-.29-1.13-.29-2.82,0-3.95,1.06-3.98,4.98-6.52,8.98-5.82Zm9.29,11.37c.04.1.1.68.15,1.3.12,1.67.4,2.16,1.3,2.23.59.05.95-.16,1.93-1.1.46-.45.93-.85,1.05-.9.2-.09.26-.08.54.11.3.2.8.82,1.19,1.48l.19.32-.29.65c-1.64,3.68-4.81,6.96-8.47,8.78l-.91.46-.4-.14c-1-.33-1.61-.78-1.61-1.19,0-.29.03-.34.66-1.36.83-1.33.91-1.92.37-2.53-.43-.47-.98-.56-2.16-.35-1.17.21-1.32.22-1.47.08-.16-.17-.12-.63.15-1.4.38-1.12.48-1.25,1.18-1.58,1.4-.67,2.74-1.81,3.64-3.09.52-.74,1.05-1.2,1.93-1.64.7-.36.95-.39,1.05-.14Z"/>
    <path d="m159.72,41.62c-1.73.59-2.79,2.05-2.79,3.85s1.16,3.39,2.94,3.91c.55.16,1.64.16,2.19,0,1.77-.52,2.94-2.08,2.94-3.92s-1.18-3.37-2.94-3.89c-.64-.19-1.71-.16-2.33.05Zm2.35,1.48c.5.24,1.09.85,1.3,1.32.55,1.26-.04,2.81-1.31,3.43-.37.18-.54.21-1.1.22-.57,0-.72-.03-1.1-.22-1.6-.78-2.02-2.84-.83-4.12.6-.66,1.19-.91,2.06-.86.4.02.67.08.98.23Z"/>
  </g>
  <g>
    <path d="m151.15.67c-.15.02-.6.07-1.01.12-2.25.26-4.86,1.09-6.97,2.22-4.59,2.46-8.05,6.71-9.58,11.75-.57,1.87-.82,3.63-.82,5.64s.21,3.67.74,5.51c3.16,10.97,14.8,17.03,25.54,13.28,6.38-2.23,11.2-7.6,12.75-14.19.4-1.72.47-2.34.46-4.61,0-1.95-.02-2.23-.21-3.26-1.57-8.72-8.38-15.23-17.11-16.36-.68-.09-3.32-.16-3.8-.11Zm-4.93,3.2c.92.46,1.53.9,1.64,1.2.09.26.02.34-1.03.95-.9.53-1.24.82-1.42,1.23-.19.4-.18.69,0,1.1.2.46.67.74,1.89,1.12,1.04.33,1.44.58,1.44.9,0,.29-.26,1-.53,1.47-.22.4-.39.56-.9.91-.35.23-.85.62-1.11.86-.6.54-1.51,1.74-1.92,2.54-.29.57-.33.6-.74.77-.57.22-1.54.25-1.77.04-.17-.16-.28-.69-.36-1.78-.09-1.1-.39-1.74-.95-1.97-.67-.29-1.17-.05-2.31,1.11-.48.48-.91.88-.95.88-.11,0-.37-.31-.53-.61-.21-.42-.35-.85-.5-1.57l-.14-.67.43-.77c1.59-2.88,3.87-5.24,6.64-6.91.67-.41,2.13-1.16,2.28-1.19.02,0,.38.17.81.38Zm7.65,8.81c3.05.53,5.52,2.8,6.33,5.82.18.68.2.92.2,1.98s-.02,1.29-.2,1.98c-.57,2.12-2.03,3.98-3.92,4.99-4.53,2.41-10.06-.02-11.39-4.99-.29-1.13-.29-2.82,0-3.95,1.06-3.98,4.98-6.52,8.98-5.82Zm9.29,11.37c.04.1.1.68.15,1.3.12,1.67.4,2.16,1.3,2.23.59.05.95-.16,1.93-1.1.46-.45.93-.85,1.05-.9.2-.09.26-.08.54.11.3.2.8.82,1.19,1.48l.19.32-.29.65c-1.64,3.68-4.81,6.96-8.47,8.78l-.91.46-.4-.14c-1-.33-1.61-.78-1.61-1.19,0-.29.03-.34.66-1.36.83-1.33.91-1.92.37-2.53-.43-.47-.98-.56-2.16-.35-1.17.21-1.32.22-1.47.08-.16-.17-.12-.63.15-1.4.38-1.12.48-1.25,1.18-1.58,1.4-.67,2.74-1.81,3.64-3.09.52-.74,1.05-1.2,1.93-1.64.7-.36.95-.39,1.05-.14Z"/>
    <path d="m151.31,16.62c-1.73.59-2.79,2.05-2.79,3.85s1.16,3.39,2.94,3.91c.55.16,1.64.16,2.19,0,1.77-.52,2.94-2.08,2.94-3.92s-1.18-3.37-2.94-3.89c-.64-.19-1.71-.16-2.33.05Zm2.35,1.48c.5.24,1.09.85,1.3,1.32.55,1.26-.04,2.81-1.31,3.43-.37.18-.54.21-1.1.22-.57,0-.72-.03-1.1-.22-1.6-.78-2.02-2.84-.83-4.12.6-.66,1.19-.91,2.06-.86.4.02.67.08.98.23Z"/>
  </g>
  <g>
    <path d="m81.09,1.43c-.15.02-.6.07-1.01.12-2.25.26-4.86,1.09-6.97,2.22-4.59,2.46-8.05,6.71-9.58,11.75-.57,1.87-.82,3.63-.82,5.64s.21,3.67.74,5.51c3.16,10.97,14.8,17.03,25.54,13.28,6.38-2.23,11.2-7.6,12.75-14.19.4-1.72.47-2.34.46-4.61,0-1.95-.02-2.23-.21-3.26-1.57-8.72-8.38-15.23-17.11-16.36-.68-.09-3.32-.16-3.8-.11Zm-4.93,3.2c.92.46,1.53.9,1.64,1.2.09.26.02.34-1.03.95-.9.53-1.24.82-1.42,1.23-.19.4-.18.69,0,1.1.2.46.67.74,1.89,1.12,1.04.33,1.44.58,1.44.9,0,.29-.26,1-.53,1.47-.22.4-.39.56-.9.91-.35.23-.85.62-1.11.86-.6.54-1.51,1.74-1.92,2.54-.29.57-.33.6-.74.77-.57.22-1.54.25-1.77.04-.17-.16-.28-.69-.36-1.78-.09-1.1-.39-1.74-.95-1.97-.67-.29-1.17-.05-2.31,1.11-.48.48-.91.88-.95.88-.11,0-.37-.31-.53-.61-.21-.42-.35-.85-.5-1.57l-.14-.67.43-.77c1.59-2.88,3.87-5.24,6.64-6.91.67-.41,2.13-1.16,2.28-1.19.02,0,.38.17.81.38Zm7.65,8.81c3.05.53,5.52,2.8,6.33,5.82.18.68.2.92.2,1.98s-.02,1.29-.2,1.98c-.57,2.12-2.03,3.98-3.92,4.99-4.53,2.41-10.06-.02-11.39-4.99-.29-1.13-.29-2.82,0-3.95,1.06-3.98,4.98-6.52,8.98-5.82Zm9.29,11.37c.04.1.1.68.15,1.3.12,1.67.4,2.16,1.3,2.23.59.05.95-.16,1.93-1.1.46-.45.93-.85,1.05-.9.2-.09.26-.08.54.11.3.2.8.82,1.19,1.48l.19.32-.29.65c-1.64,3.68-4.81,6.96-8.47,8.78l-.91.46-.4-.14c-1-.33-1.61-.78-1.61-1.19,0-.29.03-.34.66-1.36.83-1.33.91-1.92.37-2.53-.43-.47-.98-.56-2.16-.35-1.17.21-1.32.22-1.47.08-.16-.17-.12-.63.15-1.4.38-1.12.48-1.25,1.18-1.58,1.4-.67,2.74-1.81,3.64-3.09.52-.74,1.05-1.2,1.93-1.64.7-.36.95-.39,1.05-.14Z"/>
    <path d="m81.24,17.37c-1.73.59-2.79,2.05-2.79,3.85s1.16,3.39,2.94,3.91c.55.16,1.64.16,2.19,0,1.77-.52,2.94-2.08,2.94-3.92s-1.18-3.37-2.94-3.89c-.64-.19-1.71-.16-2.33.05Zm2.35,1.48c.5.24,1.09.85,1.3,1.32.55,1.26-.04,2.81-1.31,3.43-.37.18-.54.21-1.1.22-.57,0-.72-.03-1.1-.22-1.6-.78-2.02-2.84-.83-4.12.6-.66,1.19-.91,2.06-.86.4.02.67.08.98.23Z"/>
  </g>
</svg>