<?xml version="1.0" encoding="UTF-8"?>
<svg id="Layer_1" data-name="Layer 1" xmlns="http://www.w3.org/2000/svg" viewBox="0 0 229 68">
  <defs>
    <style>
      .cls-1 {
        stroke-width: .25px;
      }

      .cls-1, .cls-2 {
        fill: none;
        stroke: #231f20;
        stroke-miterlimit: 10;
      }

      .cls-3 {
        letter-spacing: 0em;
      }

      .cls-4 {
        letter-spacing: -.02em;
      }

      .cls-5 {
        font-family: HelveticaMediumItalic, Helvetica-MediumItalic;
        font-size: 31.69px;
      }

      .cls-5, .cls-6 {
        fill: #231f20;
      }

      .cls-2 {
        stroke-width: .75px;
      }
    </style>
  </defs>
  <text class="cls-5" transform="translate(18.75 43.35)"><tspan x="0" y="0">DiscogDi</tspan><tspan class="cls-4" x="125.73" y="0">v</tspan><tspan class="cls-3" x="140.18" y="0">e</tspan></text>
  <path class="cls-6" d="m173.79,20.75c-1.59,2.15-2.54,4.7-2.79,7.36-.05.48.7.48.75,0,.24-2.53,1.19-4.94,2.69-6.98.29-.39-.36-.76-.65-.38h0Z"/>
  <path class="cls-6" d="m171.68,28.15l3.27-1.97-.55-.42c-.5,1.76-1.11,3.47-1.86,5.14-.08.19-.05.4.13.51.16.1.43.05.51-.13.77-1.73,1.42-3.5,1.93-5.32.09-.31-.27-.59-.55-.42l-3.27,1.97c-.41.25-.04.9.38.65h0Z"/>
  <path class="cls-6" d="m174.59,27.3c.51-.12,1.02-.2,1.55-.22l-.38-.38c-.02.43-.19.83-.37,1.21-.21.43-.42.86-.63,1.29-.43.88-.86,1.75-1.29,2.63-.21.43.44.81.65.38.46-.94.92-1.88,1.38-2.81.42-.85.97-1.73,1.02-2.69,0-.2-.18-.38-.38-.38-.59.03-1.17.11-1.75.25-.47.11-.27.84.2.72h0Z"/>
  <path class="cls-6" d="m173.07,23.66c1.33-.3,2.73-.05,3.88.67.41.26.79-.39.38-.65-1.32-.83-2.94-1.1-4.46-.75-.47.11-.27.83.2.72h0Z"/>
  <path class="cls-6" d="m172.94,23.09c-.2.33-.17.71,0,1.04s.49.54.82.68.68.22,1.03.32c.38.11.76.22,1.14.33.19.06.41-.07.46-.26s-.07-.4-.26-.46c-.62-.18-1.25-.35-1.87-.54-.23-.07-.44-.15-.59-.32-.05-.06-.09-.12-.11-.24-.01-.05,0-.12.04-.17.1-.17.04-.41-.13-.51s-.41-.04-.51.13h0Z"/>
  <path class="cls-6" d="m176.13,25.34c3.69-2.73,7.96-4.54,12.48-5.29.32-.05.18-.53-.13-.48-4.56.76-8.88,2.6-12.6,5.34-.26.19,0,.62.25.43h0Z"/>
  <path class="cls-6" d="m188.48,20.06c-1.27,2.75-3.19,5.41-2.75,8.59s2.82,6.55.88,9.57c-.09.14.13.26.22.13,1.73-2.69.09-5.82-.61-8.55-.44-1.73-.35-3.38.28-5.05.6-1.58,1.49-3.03,2.2-4.55.07-.15-.15-.27-.22-.13h0Z"/>
  <path class="cls-6" d="m186.74,38.82c.64,0,.64-1,0-1s-.64,1,0,1h0Z"/>
  <circle class="cls-1" cx="186.74" cy="38.32" r="1.71"/>
  <circle class="cls-1" cx="186.74" cy="38.32" r="6.07"/>
  <circle class="cls-2" cx="176" cy="18.15" r="3.15"/>
</svg>