<?xml version="1.0" encoding="UTF-8"?>
<svg id="Layer_1" data-name="Layer 1" xmlns="http://www.w3.org/2000/svg" viewBox="0 0 224.55 44.76">
  <defs>
    <style>
      .cls-1, .cls-2 {
        fill: none;
        stroke: #231f20;
        stroke-miterlimit: 10;
      }

      .cls-3 {
        font-family: HelveticaMediumItalic, Helvetica-MediumItalic;
        font-size: 39.99px;
      }

      .cls-3, .cls-4 {
        fill: #231f20;
      }

      .cls-5 {
        letter-spacing: -.02em;
      }

      .cls-2 {
        stroke-width: .75px;
      }
    </style>
  </defs>
  <text class="cls-3" transform="translate(.16 36.15)"><tspan x="0" y="0">DiscogDi</tspan><tspan class="cls-5" x="158.68" y="0">v</tspan><tspan x="176.92" y="0">e</tspan></text>
  <path class="cls-4" d="m195.92,7.67c-1.99,2.7-3.19,5.9-3.51,9.24-.05.48.7.48.75,0,.31-3.2,1.5-6.27,3.41-8.86.29-.39-.36-.76-.65-.38h0Z"/>
  <path class="cls-4" d="m193.12,16.88l4.13-2.49-.55-.42c-.63,2.22-1.41,4.4-2.35,6.51-.2.44.45.82.65.38.97-2.17,1.78-4.4,2.43-6.69.09-.31-.27-.59-.55-.42l-4.13,2.49c-.41.25-.04.9.38.65h0Z"/>
  <path class="cls-4" d="m196.82,15.8c.65-.16,1.31-.25,1.98-.29l-.38-.38c-.03.56-.24,1.08-.48,1.58-.26.55-.53,1.09-.8,1.63-.54,1.11-1.08,2.21-1.62,3.32-.21.43.44.81.65.38.58-1.18,1.16-2.37,1.74-3.55.52-1.05,1.21-2.15,1.27-3.35,0-.2-.18-.38-.38-.38-.74.04-1.46.14-2.18.31-.47.11-.27.84.2.72h0Z"/>
  <path class="cls-4" d="m194.89,11.2c1.7-.39,3.5-.07,4.98.86.41.26.79-.39.38-.65-1.64-1.04-3.66-1.37-5.55-.94-.47.11-.27.83.2.72h0Z"/>
  <path class="cls-4" d="m194.84,10.64c-.23.38-.2.83,0,1.22s.58.65.98.82.86.28,1.3.41c.48.14.96.28,1.44.42s.66-.59.2-.72c-.79-.23-1.58-.44-2.36-.69-.28-.09-.59-.2-.79-.43-.16-.18-.23-.44-.11-.64.25-.41-.4-.79-.65-.38h0Z"/>
  <path class="cls-4" d="m198.87,13.59c4.63-3.43,10.02-5.72,15.71-6.66.63-.11.36-1.07-.27-.96-5.76.96-11.25,3.29-15.95,6.76-.51.38-.01,1.25.5.86h0Z"/>
  <path class="cls-4" d="m214.08,6.59c-1.64,3.56-4.09,6.96-3.51,11.08.53,3.76,3.53,8.17,1.15,11.83-.35.54.51,1.04.86.5,2.31-3.56.08-7.67-.79-11.28-.5-2.08-.33-4.04.43-6.03s1.85-3.72,2.72-5.6c.27-.58-.59-1.09-.86-.5h0Z"/>
  <path class="cls-4" d="m224.43,33.84c.16,0,.16-.25,0-.25s-.16.25,0,.25h0Z"/>
  <path class="cls-4" d="m212.18,30.31c.64,0,.64-1,0-1s-.64,1,0,1h0Z"/>
  <circle class="cls-1" cx="212.18" cy="29.81" r="2.16"/>
  <circle class="cls-1" cx="212.18" cy="29.81" r="7.66"/>
  <circle class="cls-2" cx="198.62" cy="4.35" r="3.98"/>
</svg>